<svg width="198" height="70" viewBox="0 0 198 70" fill="none" xmlns="http://www.w3.org/2000/svg">
<path d="M2.4049 51.0433C3.14989 52.5047 4.22081 53.6362 5.61766 54.4376C5.52454 54.8148 5.43142 55.1684 5.33829 55.4984C5.24517 55.8284 5.15205 56.182 5.05892 56.5591C4.68643 57.6435 4.38378 58.7514 4.15097 59.8828C3.96472 60.9671 4.03456 62.3343 4.3605 63.9844C4.54674 64.4087 4.75627 64.7858 4.98908 65.1159L5.68751 66.1059L6.24625 66.9545C6.4325 67.1902 6.59546 67.4495 6.73515 67.7324L7.57326 68.4395C7.80607 68.4867 8.03888 68.5574 8.27169 68.6517C8.50449 68.6988 8.7373 68.7695 8.97011 68.8638C9.34261 69.0053 9.69182 69.1467 10.0178 69.2881C10.3902 69.4296 10.949 69.4531 11.694 69.3589C12.3924 68.9817 12.9977 68.4631 13.5099 67.8031C14.0221 67.0959 14.3713 66.2945 14.5575 65.3987C14.7903 64.3144 14.6739 63.3479 14.2083 62.4993C14.2083 62.3579 14.2316 62.2165 14.2782 62.075C14.3247 61.9336 14.3946 61.7686 14.4877 61.58C14.5808 61.2972 14.6739 60.9907 14.7671 60.6607C14.9067 60.3307 14.9766 59.9771 14.9766 59.6H15.0464C15.0464 59.5528 15.2559 59.4821 15.675 59.3878L15.6052 58.1149C15.838 57.7849 16.0242 57.4785 16.1639 57.1956C16.3502 56.8656 16.4898 56.5356 16.583 56.2056C16.6761 55.9227 16.7692 55.6634 16.8623 55.4277C16.9555 55.1448 17.1417 54.8855 17.4211 54.6498C17.8401 54.5084 18.2825 54.3669 18.7481 54.2255C19.2137 54.0841 19.6793 54.0134 20.1449 54.0134C20.2381 54.0134 20.3312 54.0369 20.4243 54.0841C20.5174 54.0841 20.8201 54.0605 21.3323 54.0134C22.1704 53.6833 23.055 53.4476 23.9863 53.3062C24.9641 53.1176 25.9652 52.929 26.9895 52.7405L29.2245 52.4576C29.9695 52.3162 30.9007 52.1511 32.0182 51.9626C32.4372 51.9626 32.8563 51.9154 33.2753 51.8211C33.6944 51.6797 34.0902 51.5618 34.4627 51.4676C35.2542 51.2318 36.0923 51.1375 36.977 51.1847L37.6754 51.3968L38.0945 50.8311L41.3771 46.5881L41.5866 45.8809C41.5401 45.3624 41.4237 44.9616 41.2374 44.6788C41.0512 44.3487 40.8416 44.113 40.6088 43.9716L40.1199 43.2644C39.9802 43.1701 39.8173 43.0994 39.631 43.0523C39.4913 42.958 39.2585 42.8401 38.9326 42.6987L39.3517 41.5672L38.5834 41.4965L39.212 40.8601H36.4881C35.0447 40.8601 33.6478 40.9544 32.2976 41.1429C30.9938 41.2844 29.6901 41.4729 28.3864 41.7087C27.362 41.8501 26.3842 41.9915 25.453 42.133C24.5683 42.2272 23.6603 42.3215 22.7291 42.4158L22.4497 41.5672C22.3566 41.1901 22.3566 40.8365 22.4497 40.5065C22.5894 40.1293 22.7524 39.8465 22.9386 39.6579L23.2879 38.9507C23.2413 37.3478 23.7069 35.957 24.6847 34.7784C24.7313 34.4956 24.7545 34.2363 24.7545 34.0006C24.8011 33.7177 24.8477 33.4584 24.8942 33.2227C24.9874 32.8927 25.0572 32.5626 25.1038 32.2326C25.1503 31.8555 25.1503 31.4783 25.1038 31.1012C25.3831 30.9126 25.5927 30.7947 25.7323 30.7476C26.3376 30.5119 26.8265 30.2526 27.199 29.9697C28.5493 29.4511 30.1324 28.9797 31.9483 28.5554C33.7642 28.0839 35.6267 27.7068 37.5358 27.4239C39.4448 27.0939 41.3073 26.8582 43.1232 26.7167C44.9856 26.5282 46.6153 26.4339 48.0121 26.4339H48.9899C49.3159 26.4339 49.7815 26.4574 50.3868 26.5046L51.2948 26.0096L52.2725 25.7267C52.5985 25.6324 52.9011 25.3024 53.1805 24.7367C53.5064 23.6524 53.4133 22.5445 52.9011 21.413L52.3424 20.8473C52.2027 20.753 52.0397 20.6351 51.8535 20.4937L51.2249 19.8572C50.899 19.5272 50.5498 19.1972 50.1773 18.8672C49.8048 18.49 49.3857 18.1836 48.9201 17.9479C48.1286 16.4393 46.5222 15.685 44.101 15.685C43.8216 15.685 43.5422 15.7085 43.2628 15.7557C42.9835 15.7557 42.7041 15.7321 42.4247 15.685L40.958 15.7557C38.1178 15.9914 35.5569 16.3685 33.2753 16.8871C30.9938 17.4057 29.1546 17.8536 27.7578 18.2307C27.0128 18.4193 26.2445 18.655 25.453 18.9379C25.3133 19.1265 25.1038 19.2444 24.8244 19.2915C24.545 19.3386 24.2424 19.3622 23.9164 19.3622C23.5439 19.4094 23.1249 19.4801 22.6593 19.5744C22.2402 19.6215 21.8444 19.8101 21.4719 20.1401C20.3545 20.423 19.237 20.753 18.1195 21.1301C17.002 21.5073 15.9078 21.8844 14.8369 22.2616C13.766 22.6388 12.6718 23.0159 11.5543 23.3931C10.4368 23.7231 9.34261 24.0295 8.27169 24.3124L7.57326 25.0195C7.5267 25.1138 7.27061 25.4674 6.80499 26.0803L6.6653 26.9289C6.57218 27.2118 6.59546 27.6596 6.73515 28.2725C6.92139 28.6025 7.01452 28.8618 7.01452 29.0504C7.01452 29.1918 6.96796 29.3097 6.87483 29.404L6.45578 30.2526L7.29389 30.8183C7.5267 31.054 7.73622 31.3133 7.92247 31.5962C8.10872 31.8791 8.31825 32.2091 8.55106 32.5862C8.78386 32.9634 8.99339 33.3405 9.17964 33.7177C9.41245 34.0477 9.87807 34.472 10.5765 34.9906C10.7627 35.0377 10.9257 35.0849 11.0654 35.132H11.4844C11.7638 35.2263 11.9501 35.297 12.0432 35.3442C12.1829 35.3442 12.3924 35.462 12.6718 35.6978C12.5786 35.9335 12.4855 36.2163 12.3924 36.5463C12.2993 36.8764 12.276 37.2535 12.3226 37.6778C12.0432 38.1964 11.8104 38.715 11.6241 39.2336C11.4379 39.7522 11.2749 40.2708 11.1352 40.7893L10.7162 41.9208C10.6231 42.298 10.3437 42.5808 9.87807 42.7694C9.64526 42.5808 9.38917 42.3923 9.1098 42.2037C8.87699 42.0151 8.64418 41.8029 8.41137 41.5672L7.36373 41.2136C6.75843 41.3551 6.12984 41.5437 5.47798 41.7794C4.82611 41.968 4.19753 42.2744 3.59223 42.6987C2.98693 43.0758 2.47475 43.5944 2.05569 44.2545C1.59007 44.8673 1.28742 45.7395 1.14774 46.871C1.24086 48.191 1.65991 49.5818 2.4049 51.0433Z" fill="black"/>
<path d="M85.378 31.2426C85.1451 30.4883 84.9822 29.5926 84.8891 28.5554C84.3769 27.9896 83.8181 27.4239 83.2128 26.8582C82.6541 26.2924 82.0022 25.7739 81.2572 25.3024C80.2329 25.7739 79.581 26.4574 79.3017 27.3532C79.1154 27.7303 79.1154 28.0604 79.3017 28.3432L79.4413 29.1211C79.4413 29.9697 79.0456 30.5354 78.254 30.8183C78.1609 32.1383 77.9746 33.5527 77.6953 35.0613C77.4625 36.5228 77.09 38.0078 76.5778 39.5164C76.1122 41.0251 75.5069 42.4865 74.7619 43.9009C74.0635 45.2681 73.2253 46.4938 72.2475 47.5781C71.2697 48.6625 70.3385 49.6289 69.4538 50.4775C68.5692 51.279 67.6379 51.9861 66.6601 52.599C65.6823 53.2119 64.6114 53.7541 63.4474 54.2255C62.3299 54.6498 61.0727 55.0505 59.6759 55.4277L58.4885 55.5691L58.0695 54.6498C57.7901 53.8955 57.5806 52.9762 57.4409 51.8919C57.3478 50.7604 57.3245 49.6053 57.3711 48.4267C57.4642 47.201 57.6272 45.9988 57.86 44.8202C58.1393 43.6416 58.5118 42.6044 58.9774 41.7087C58.9309 40.9072 58.7446 40.0822 58.4187 39.2336C58.1393 38.3378 57.8134 37.4892 57.4409 36.6878C57.2547 36.2163 57.0684 35.792 56.8822 35.4149C56.7425 34.9906 56.6261 34.5899 56.533 34.2127C55.8345 33.9298 55.2991 33.5291 54.9266 33.0105C54.6006 32.4919 54.3213 32.0205 54.0885 31.5962C53.8556 31.0776 53.6228 30.7004 53.39 30.4647C53.1572 30.229 52.7149 30.1347 52.063 30.1819C51.8302 30.5119 51.5508 30.889 51.2249 31.3133C50.899 31.6905 50.4101 31.9498 49.7582 32.0912C49.4788 32.9869 49.2693 33.9534 49.1296 34.9906C49.0365 35.6035 48.9201 36.2635 48.7804 36.9706C48.6407 37.6307 48.501 38.4793 48.3614 39.5164V40.2943C47.6629 42.4158 47.2904 44.8438 47.2439 47.5781C47.2439 50.2654 47.3137 53.2355 47.4534 56.4884L47.5233 57.6199C47.6164 57.7613 47.7328 57.9028 47.8725 58.0442C48.0121 58.1385 48.1286 58.2563 48.2217 58.3978L49.7582 60.095L48.5709 60.4486C48.8503 60.92 49.1063 61.3914 49.3392 61.8629C49.572 62.2872 49.8048 62.7586 50.0376 63.2772C50.4101 64.1258 50.7826 64.9273 51.1551 65.6816C51.5741 66.3888 52.1794 66.9309 52.971 67.3081C53.2038 67.3081 53.4599 67.3788 53.7392 67.5202C54.0186 67.6617 54.2281 67.9209 54.3678 68.2981C55.6716 68.4395 56.7658 68.5103 57.6504 68.5103C58.1626 68.5574 58.6981 68.6045 59.2568 68.6517C59.8621 68.6517 60.5605 68.6988 61.3521 68.7931C63.3077 67.9445 65.0538 67.1666 66.5903 66.4595C68.1734 65.7523 69.5702 64.998 70.7808 64.1965C72.038 63.3479 73.1555 62.4051 74.1333 61.3679C75.1111 60.2836 76.0423 58.9635 76.927 57.4077L77.6254 56.5591L78.6032 56.2763L78.8826 54.5084L80.2794 55.0034C80.3726 54.9091 80.489 54.7205 80.6287 54.4376C80.7683 54.1548 80.8848 53.9426 80.9779 53.8012C81.1641 53.4712 81.3271 53.1647 81.4668 52.8819C81.653 52.5519 81.8625 52.269 82.0954 52.0333C82.5144 51.0904 83.0732 49.9825 83.7716 48.7096C84.47 47.4367 85.1917 45.9752 85.9367 44.3252C86.1229 43.1937 86.2859 42.1094 86.4256 41.0722C86.4613 40.8732 86.5005 40.6707 86.5431 40.4647C86.63 40.6837 86.6607 40.9097 86.6351 41.1429C86.5886 41.5201 86.5187 41.9915 86.4256 42.5573C86.6584 42.9816 86.9145 43.3823 87.1939 43.7594C87.4732 44.0895 87.7526 44.443 88.032 44.8202C88.4045 44.7259 88.6606 44.773 88.8002 44.9616C88.9399 45.1502 89.0563 45.3624 89.1495 45.5981C90.4998 46.211 91.8966 46.6353 93.34 46.871C94.83 47.1067 96.3665 47.2717 97.9496 47.366C98.6481 47.5074 99.2068 47.6489 99.6259 47.7903C100.091 47.9317 100.58 47.861 101.093 47.5781C101.884 48.0024 102.839 48.4032 103.956 48.7803C105.074 49.1103 106.075 49.5346 106.959 50.0532L107.728 50.2654C107.728 50.5482 107.821 50.7368 108.007 50.8311C108.24 50.8782 108.333 51.0668 108.286 51.3968C108.193 51.8211 108.03 52.1747 107.797 52.4576C107.565 52.7405 107.309 52.9997 107.029 53.2355C106.75 53.4712 106.47 53.7305 106.191 54.0134C105.958 54.2962 105.772 54.6498 105.632 55.0741C104.515 55.5927 103.374 56.182 102.21 56.842C101.093 57.502 99.9052 58.1149 98.6481 58.6806C97.3909 59.2464 96.0406 59.6942 94.5972 60.0243C93.2003 60.3071 91.7104 60.3543 90.1273 60.1657C89.5685 60.4486 89.2193 60.8257 89.0796 61.2972C88.9865 61.7686 88.9632 62.2636 89.0098 62.7822L89.1495 64.338C89.196 64.8094 89.1262 65.2337 88.9399 65.6109C88.8934 65.7523 88.9167 65.8702 89.0098 65.9645L89.2891 66.1059C89.4288 66.153 89.4987 66.2238 89.4987 66.318C89.5452 66.3652 89.4288 66.6245 89.1495 67.0959C89.3357 67.0959 89.4056 67.2138 89.359 67.4495C89.359 67.6852 89.4754 67.8031 89.7082 67.8031C89.8479 68.2745 90.0341 68.6517 90.2669 68.9346C90.5463 69.2646 90.849 69.5946 91.1749 69.9246C91.6405 69.8303 92.1294 69.8067 92.6416 69.8539C93.2003 69.901 93.7358 69.9246 94.248 69.9246C94.7602 69.9717 95.2258 69.9482 95.6448 69.8539C96.1104 69.7596 96.5295 69.5474 96.902 69.2174C96.8089 69.5003 96.8554 69.6181 97.0417 69.571C97.2279 69.5239 97.4142 69.5239 97.6004 69.571C99.2766 69.0524 100.999 68.416 102.769 67.6617C104.538 66.9073 106.191 66.0116 107.728 64.9744C109.311 63.8901 110.708 62.6643 111.918 61.2972C113.175 59.93 114.153 58.3742 114.852 56.6299C115.224 55.687 115.387 54.7677 115.34 53.8719C115.294 52.929 115.224 51.8683 115.131 50.6897C114.805 49.9354 114.363 49.2518 113.804 48.6389C113.245 47.9789 112.896 47.3424 112.756 46.7295C112.523 46.4938 112.314 46.3995 112.128 46.4467C111.941 46.4938 111.778 46.3288 111.639 45.9517C111.639 45.5274 111.546 45.0559 111.359 44.5373C111.22 43.9716 110.987 43.453 110.661 42.9816C110.335 42.5101 109.916 42.1094 109.404 41.7794C108.892 41.4494 108.286 41.2844 107.588 41.2844C107.448 40.8129 107.192 40.4829 106.82 40.2943C106.447 40.0586 106.005 39.87 105.493 39.7286L104.096 39.3043C103.677 39.1629 103.328 38.9271 103.048 38.5971C103.141 38.3614 103.118 38.22 102.978 38.1728C102.839 38.0785 102.792 37.9135 102.839 37.6778C103.63 37.5835 104.352 37.4892 105.004 37.3949C105.702 37.2535 106.284 36.9942 106.75 36.6171C107.309 36.7114 107.891 36.6642 108.496 36.4756C109.148 36.2871 109.776 36.0985 110.382 35.9099C111.033 35.7213 111.639 35.627 112.198 35.627C112.803 35.627 113.315 35.8392 113.734 36.2635C115.131 36.1692 116.714 36.0513 118.483 35.9099C120.145 35.777 121.787 35.8938 123.408 36.2601C123.495 36.9213 123.599 37.5824 123.722 38.2435C123.861 38.9507 124.071 39.6815 124.35 40.4358C124.676 41.1429 125.165 41.8029 125.817 42.4158C125.491 43.3116 125.142 44.1366 124.769 44.8909C124.443 45.5981 124.094 46.3052 123.722 47.0124C123.396 47.7196 123.07 48.4503 122.744 49.2046C122.418 49.9589 122.115 50.7604 121.836 51.609C121.51 51.5618 121.324 51.6561 121.277 51.8919C121.231 52.0804 121.091 52.1983 120.858 52.2454C120.998 52.9055 120.835 53.5183 120.369 54.0841C119.95 54.6498 119.671 55.2862 119.531 55.9934C119.391 56.6534 119.345 57.3842 119.391 58.1856C119.484 58.9871 119.601 59.8121 119.741 60.6607C119.88 61.4622 120.02 62.24 120.16 62.9944C120.299 63.7487 120.392 64.4323 120.439 65.0451C120.951 65.2809 121.254 65.6344 121.347 66.1059C121.487 66.5302 121.743 66.9073 122.115 67.2374C123 68.1331 124.141 68.746 125.537 69.076C126.934 69.4531 128.401 69.6653 129.938 69.7124C131.474 69.7596 132.987 69.6889 134.477 69.5003C135.967 69.3117 137.248 69.0996 138.319 68.8638C138.691 68.8638 139.017 68.911 139.296 69.0053C139.576 69.1467 139.925 69.1703 140.344 69.076C142.067 68.746 143.627 68.4631 145.024 68.2274C146.467 67.9917 147.771 67.6617 148.935 67.2374C150.099 66.8131 151.123 66.2002 152.008 65.3987C152.939 64.5501 153.754 63.3479 154.452 61.7922C154.173 61.8393 153.963 61.7922 153.824 61.6507C153.731 61.4622 153.661 61.25 153.614 61.0143C153.568 60.7786 153.498 60.5429 153.405 60.3071C153.358 60.0243 153.242 59.7885 153.055 59.6C152.636 59.6471 152.287 59.5528 152.008 59.3171C151.728 59.0814 151.449 58.8221 151.17 58.5392C150.937 58.2092 150.681 57.8792 150.401 57.5492C150.122 57.172 149.796 56.9127 149.424 56.7713C148.353 57.1485 147.165 57.4313 145.862 57.6199C144.605 57.7613 143.51 58.0913 142.579 58.6099C141.089 58.5628 139.855 58.6099 138.877 58.7514C137.9 58.8456 136.945 58.9635 136.014 59.1049C135.083 59.1992 134.082 59.27 133.011 59.3171C131.986 59.3642 130.683 59.27 129.099 59.0342C129.565 57.7613 130.101 56.5591 130.706 55.4277C131.311 54.2962 131.986 53.2355 132.731 52.2454C133.29 52.434 133.919 52.5283 134.617 52.5283C135.362 52.4812 135.991 52.5754 136.503 52.8112C136.875 52.5754 137.387 52.5047 138.039 52.599C138.738 52.6933 139.273 52.6226 139.646 52.3869C139.832 52.5283 139.972 52.599 140.065 52.599H140.623C141.741 52.6462 142.742 52.5519 143.627 52.3162C144.558 52.0333 145.419 51.6797 146.211 51.2554C147.049 50.8311 147.841 50.3597 148.586 49.8411C149.331 49.2753 150.076 48.7332 150.821 48.2146C151.007 47.7431 151.053 47.2953 150.96 46.871C150.914 46.3995 150.797 45.9752 150.611 45.5981C150.145 45.6452 149.726 45.5745 149.354 45.3859C149.028 45.1502 148.702 44.8673 148.376 44.5373L147.398 43.5473C147.072 43.1701 146.746 42.8637 146.42 42.628C146.374 42.4394 146.397 42.3215 146.49 42.2744C146.583 42.1801 146.607 42.0151 146.56 41.7794C144.651 41.8265 142.695 41.9444 140.693 42.133C138.738 42.3215 136.945 42.3451 135.315 42.2037C135.176 41.9208 135.106 41.5672 135.106 41.1429C135.152 40.6715 135.083 40.2236 134.896 39.7993C135.315 39.6579 135.735 39.54 136.154 39.4457C136.573 39.3043 136.922 39.0921 137.201 38.8093C138.132 38.9036 138.831 38.8329 139.296 38.5971C139.809 38.3614 140.367 38.3614 140.973 38.5971C142.509 37.6542 144.046 37.0414 145.582 36.7585C147.165 36.4756 148.702 36.2163 150.192 35.9806C151.682 35.6978 153.055 35.2735 154.313 34.7077C155.616 34.0948 156.757 32.9869 157.735 31.384C157.642 31.054 157.595 30.8183 157.595 30.6769V30.1819C157.642 30.0404 157.665 29.899 157.665 29.7576C157.712 29.569 157.712 29.3097 157.665 28.9797C156.78 28.6025 155.966 28.1546 155.221 27.6361C154.522 27.0703 153.94 26.3867 153.475 25.5853C153.521 26.0096 153.405 26.151 153.125 26.0096C152.893 25.821 152.683 25.9389 152.497 26.3632C152.124 26.3632 151.728 26.151 151.309 25.7267C149.354 26.1039 147.608 26.3867 146.071 26.5753C144.535 26.7639 143.045 26.976 141.601 27.2118C140.204 27.4003 138.761 27.6596 137.271 27.9896C135.828 28.3197 134.175 28.7911 132.312 29.404C131.288 29.6397 130.31 29.8518 129.379 30.0404C128.448 30.229 127.586 30.4647 126.795 30.7476C126.328 30.9145 125.877 31.1142 125.442 31.3468C125.382 31.2876 125.321 31.2293 125.258 31.1719C125.212 30.7476 125.072 30.3469 124.839 29.9697C124.606 29.5454 124.327 29.1211 124.001 28.6968L123.163 27.4239C122.883 26.9996 122.674 26.5517 122.534 26.0803C119.973 25.326 117.529 25.0431 115.201 25.2317C112.873 25.3731 110.591 25.7267 108.356 26.2924C106.168 26.8582 104.003 27.5182 101.861 28.2725C99.7655 28.9797 97.7867 29.734 95.9242 30.5354C95.0861 30.7712 94.2014 31.054 93.2702 31.384C92.3389 31.714 91.431 32.1383 90.5463 32.6569C89.7082 33.1284 88.9167 33.7177 88.1717 34.4249C87.6886 34.914 87.2946 35.4708 86.9897 36.0953C86.9263 35.8519 86.8547 35.6251 86.7748 35.4149C86.5886 34.7549 86.379 34.0948 86.1462 33.4348C85.8669 32.7277 85.6108 31.9969 85.378 31.2426Z" fill="black"/>
<path d="M174.932 0.348816C174.419 0.382692 173.878 0.580918 173.31 0.943493C173.208 1.31812 172.866 1.92236 172.286 2.75622C171.705 3.63722 170.792 4.74542 169.548 6.08084C168.925 6.77211 168.135 7.60056 167.179 8.56617C166.27 9.53299 165.359 10.5705 164.446 11.6787C163.578 12.8352 162.803 14.0178 162.121 15.2262C161.438 16.4347 161.059 17.6039 160.984 18.7338L161.937 19.7488C162.254 20.0872 162.573 20.3548 162.894 20.5518C163.214 20.7958 163.56 20.9463 163.931 21.003C164.302 21.0598 164.724 20.9528 165.197 20.6821C166.159 21.3201 166.897 21.5985 167.411 21.5175C167.926 21.4365 168.374 21.1888 168.757 20.7742C169.139 20.4069 169.5 19.9682 169.839 19.4582C170.176 18.9953 170.673 18.6781 171.33 18.5064C172.521 17.4526 173.738 16.2815 174.982 14.9932C176.271 13.7533 177.558 12.584 178.843 11.4854C178.949 10.9694 179.171 10.5036 179.507 10.0878C179.89 9.6733 180.296 9.25938 180.726 8.84606C181.156 8.43275 181.586 7.99586 182.017 7.53542C182.493 7.1233 182.877 6.66165 183.17 6.15046C182.893 6.04897 182.621 5.75897 182.353 5.28045C182.131 4.85027 182.093 4.51916 182.239 4.28713C181.728 4.22675 181.222 3.95429 180.722 3.46974C180.269 2.98641 179.953 2.55381 179.777 2.17196C179.132 1.87232 178.534 1.57388 177.983 1.27665C177.478 0.980626 176.971 0.755293 176.463 0.600653C175.954 0.446014 175.444 0.362068 174.932 0.348816Z" fill="#F2B011"/>
<path d="M194.643 26.5969C194.445 27.0772 194.084 27.5304 193.56 27.9563C193.177 27.9326 192.502 28.0628 191.534 28.3468C190.522 28.6166 189.19 29.1301 187.538 29.8874C186.69 30.2589 185.659 30.7452 184.447 31.3462C183.248 31.9023 181.982 32.4371 180.65 32.9506C179.288 33.405 177.932 33.7624 176.581 34.0227C175.23 34.2831 174.015 34.2654 172.935 33.9697L172.297 32.7275C172.085 32.3134 171.939 31.9207 171.859 31.5492C171.735 31.1635 171.707 30.7838 171.775 30.4099C171.843 30.0361 172.08 29.6669 172.486 29.3025C172.204 28.1739 172.184 27.3765 172.427 26.9104C172.67 26.4443 173.047 26.0952 173.559 25.8633C174.026 25.6172 174.553 25.4149 175.14 25.2564C175.682 25.0836 176.14 24.7109 176.514 24.1383C177.885 23.3408 179.375 22.5564 180.983 21.785C182.56 20.9544 184.071 20.1025 185.515 19.2293C186.032 19.2955 186.539 19.2352 187.036 19.0482C187.548 18.8163 188.067 18.5619 188.593 18.2851C189.118 18.0082 189.666 17.7384 190.237 17.4758C190.776 17.154 191.333 16.9362 191.905 16.8226C191.91 17.1208 192.092 17.4757 192.452 17.8874C192.782 18.2399 193.078 18.3842 193.342 18.3203C193.233 18.829 193.323 19.4016 193.612 20.0381C193.916 20.6296 194.218 21.0721 194.517 21.3654C194.587 22.08 194.671 22.7496 194.769 23.3743C194.882 23.9539 194.927 24.5123 194.906 25.0494C194.885 25.5866 194.797 26.1024 194.643 26.5969Z" fill="#F2B011"/>
<path d="M193.504 41.4038C193.798 41.4237 194.031 41.4694 194.204 41.5409C194.106 41.9078 194.032 42.4631 193.983 43.2068C193.977 43.9685 193.962 44.7519 193.938 45.5571C193.975 46.3366 194.021 47.0943 194.075 47.8301C194.147 48.5224 194.204 49.0043 194.245 49.2761C193.642 50.1466 193.018 50.7543 192.376 51.0992C191.733 51.4441 191.094 51.8415 190.46 52.2915C190.115 52.1486 189.687 52.1495 189.176 52.2941C188.707 52.4566 188.33 52.5804 188.044 52.6656C187.698 52.7766 187.459 52.8052 187.33 52.7516C187.219 52.6544 187.007 52.6177 186.696 52.6414C186.574 52.6929 186.524 52.6924 186.367 52.8312C186.228 52.9264 186.107 52.9779 186.003 52.9858C185.838 53.0194 185.679 52.9787 185.524 52.8636C185.201 52.7296 185.258 52.6513 184.918 52.7449C184.399 52.7844 184.066 52.7992 183.919 52.7892L183.725 52.7088L183.505 52.6939C183.418 52.6581 183.125 52.6382 182.623 52.6341C181.889 52.5842 181.098 52.4858 180.252 52.3387C179.423 52.1481 179.397 52.5496 178.331 52.0008C177.488 52.0331 177.251 51.8588 176.691 51.6265C176.192 51.3685 175.662 51.1234 175.102 50.8912C174.602 50.6332 174.112 50.3533 173.63 50.0517C173.148 49.7501 172.748 49.4316 172.431 49.0963C172.418 48.6322 172.415 47.8924 172.423 46.8769C172.474 45.8793 172.569 44.8995 172.706 43.9376C172.887 42.9936 172.836 43.044 173.187 42.4253C173.555 41.7629 174.266 41.3509 175.519 41.4359C177.4 41.5635 177.571 41.6752 178.936 41.7828C180.319 41.8467 181.746 41.8015 183.217 41.6473C184.731 41.511 186.22 41.3131 187.684 41.0538C189.208 40.7687 190.68 40.4875 192.1 40.2103C192.012 40.4285 192.036 40.6169 192.173 40.7756C192.311 40.9343 192.487 41.0583 192.702 41.1477C192.961 41.2549 193.228 41.3402 193.504 41.4038Z" fill="#F2B011"/>
</svg>
